<?xml version="1.0" standalone="no"?>
<!DOCTYPE svg PUBLIC "-//W3C//DTD SVG 20010904//EN"
 "http://www.w3.org/TR/2001/REC-SVG-20010904/DTD/svg10.dtd">
<svg version="1.0" xmlns="http://www.w3.org/2000/svg"
 width="48.000000pt" height="48.000000pt" viewBox="0 0 48.000000 48.000000"
 preserveAspectRatio="xMidYMid meet">

<g transform="translate(0.000000,48.000000) scale(0.100000,-0.100000)"
fill="#000000" stroke="none">
<path d="M125 365 c-63 -59 -115 -113 -115 -120 0 -15 215 -220 230 -220 5 0
62 49 125 109 l116 108 -23 25 c-13 14 -67 65 -120 115 l-97 89 -116 -106z
m132 -84 c3 -11 14 -22 25 -24 22 -6 16 -27 -8 -27 -8 0 -14 -6 -14 -14 0 -24
-18 -28 -42 -12 -12 9 -18 16 -13 16 6 0 1 7 -9 15 -18 14 -18 15 8 24 14 6
26 17 26 26 0 22 21 19 27 -4z"/>
</g>
</svg>
